<svg xmlns="http://www.w3.org/2000/svg" xmlns:xlink="http://www.w3.org/1999/xlink" viewBox="0 0 482.19 397.06">
  <defs>
    <style>
      .cls-1 {
        fill: url(#linear-gradient);
      }

      .cls-2 {
        fill: url(#linear-gradient-2);
      }

      .cls-3 {
        fill: url(#linear-gradient-3);
      }
    </style>
    <linearGradient id="linear-gradient" x1="94.73" y1="173.48" x2="482.19" y2="173.48" gradientUnits="userSpaceOnUse">
      <stop offset="0" stop-color="#cb6e40"/>
      <stop offset="1" stop-color="#693419"/>
    </linearGradient>
    <linearGradient id="linear-gradient-2" x1="0" y1="324.94" x2="129.92" y2="324.94" xlink:href="#linear-gradient"/>
    <linearGradient id="linear-gradient-3" x1="443.58" y1="157.16" x2="446" y2="157.16" xlink:href="#linear-gradient"/>
  </defs>
  <g id="Layer_2" data-name="Layer 2">
    <g id="Layer_1-2" data-name="Layer 1">
      <g>
        <path class="cls-1" d="M443.71,159.64c-1.31,1-3,1.64-3.89,2.9-8.11,11.44-16.58,22.67-24,34.55-18,28.82-35.55,58-53.3,87-2.06,3.38-4.15,6.74-6.4,10-2.9,4.2-5.71,4.83-10.15,2.5-3.8-2-6.3-5.13-6.08-9.45a119.27,119.27,0,0,1,1.91-16.44A517.29,517.29,0,0,1,364.91,188c3-8.13,5.39-16.52,8-24.81a9.85,9.85,0,0,0-.13-2.53c-4.36,7-8.35,13.3-12.17,19.68-19.83,33.1-40.51,65.64-64.91,95.63-16.42,20.19-34.41,38.84-56.52,52.93-13.07,8.33-26.95,15.19-42.57,17.22-15,1.95-29.67,1.15-42.76-7.84a39.6,39.6,0,0,1-14.43-16.94,21.41,21.41,0,0,1-1.57-8c0-2.75,2.51-5.44,4.58-5.49,2.88-.07,3.92,2.1,5,4.31,1.93,3.85,3.46,8.1,6.2,11.28,5.83,6.76,13.83,9.67,22.61,10.4,9.92.83,19.24-1.89,28.29-5.47,14.69-5.8,27.62-14.63,39.82-24.44,20.48-16.48,37.8-36.05,53.23-57.2,13.28-18.2,26-36.85,38.56-55.53,7.73-11.47,14.84-23.35,22.18-35.08a227.77,227.77,0,0,1,24.51-32.69c3.57-3.93,7.58-7.44,11.23-11.3a20.08,20.08,0,0,0,4.08-5.7c2.37-5.7-.71-10.34-7.11-10.39a52.68,52.68,0,0,0-12.88,1.5c-11.18,2.78-21.41,8-31.52,13.34-25,13.23-49.48,27.35-75.41,38.72-6.66,2.92-13.35,5.78-20.34,8.8,1.9,2.55,3.53,4.75,5.18,7,8.19,10.94,10.45,23.23,8.31,36.53-3.05,19-13.81,33.49-28,45.49C215.46,265,191,275.08,164,279c-12.22,1.78-24.45,2.14-36.64,0-8.1-1.44-15.6-4.48-21.86-10-9.84-8.63-13.13-21.56-9-34A54.85,54.85,0,0,1,108.79,215c9-9.73,20-16.75,31.3-23.31,18.89-11,39.33-18.5,59.49-26.66,5.82-2.35,11.7-4.57,18.47-7.2-8.52-5.61-16.74-9.63-24.94-13.75-10.23-5.15-20.33-10.57-30.31-16.18a54.68,54.68,0,0,1-9.41-7.19c-12.53-11.21-15.17-25.13-9.83-40.5a54.64,54.64,0,0,1,8.88-16c20.26-25.32,46.13-43,76.33-54.42A158,158,0,0,1,263.07.77C272-.47,280.94-.35,289.55,2.09c12.32,3.5,21.69,13.45,20.65,29.29-1.05,16.05-9.63,27.64-20.46,38.16-5.4,5.24-11.24,10-18.3,12.94-4.57,1.9-9.18,2.59-13.55-.56-5.21-3.75-5.15-8.31.33-11.56,8.72-5.17,16.95-11,24-18.3a154.61,154.61,0,0,0,11.87-14.72,20.31,20.31,0,0,0,2.7-5.9c2.7-8.19-.11-12.4-8.58-13.6-9.35-1.32-18.24,1.07-26.76,4-32.2,11-61.32,27.37-85.19,52A67.21,67.21,0,0,0,164.8,90.26c-4.29,8.57-2.44,15.3,5.59,20.6,8.39,5.54,17.33,10.27,26.16,15.1,7.11,3.89,14.49,7.29,21.62,11.15s14.08,8,22.08,12.59c9.05-3.86,19-7.63,28.56-12.27,21.86-10.63,43.44-21.83,65.28-32.51,9-4.42,18.17-8.84,27.7-11.9s19.59-5.38,29.87-4.89c7.14.34,12.8,4.11,17.19,9.26,3.79,4.44,2.76,10.24,1.19,15.28-5.13,16.4-10.83,32.62-16.05,49-8.81,27.67-17.43,55.41-26.11,83.12a20,20,0,0,0-1.06,6.56c.74-.95,1.56-1.85,2.21-2.86,16.18-24.85,32-49.93,48.64-74.47,9.07-13.4,19.25-26.07,29.37-38.71,5.66-7.05,12.17-13.43,18.44-20a11,11,0,0,1,4.94-3.09,6.91,6.91,0,0,1,5,.93c1.07.71,1.05,2.92,2.06,3.9.71.69,2.64,0,3.5.67,1.65,1.24,1.57,5.72.26,8.38-3.46,7.07-7.08,14.07-10.31,21.24-8.27,18.37-16.77,36.64-24.42,55.27-10.31,25.09-18.82,50.8-23,77.72-1.65,10.56-2.64,21.23-.68,31.89,1.2,6.54,3.37,12.57,9.14,16.72,1,.75,2.19,2.85,1.82,3.68A4.83,4.83,0,0,1,430,334.8c-8.26.19-14.28-4.06-18.88-10.47-4.37-6.09-6.32-13.06-6.89-20.52-1.57-20.38,1.53-40.11,6.73-59.8,7-26.52,18-51.4,29-76.38,1.18-2.72,2.43-5.41,3.64-8.13.79-1.47,1.61-2.91,2.42-4.36l-1.18-.46ZM134.92,260.56c5.58-.6,10.73-.85,15.76-1.74,27.84-4.92,52.93-15.59,73.49-35.6a71.46,71.46,0,0,0,14.44-19.4c6-12.08,4.94-23.94-2.85-32.65-4.39-4.89-4.63-5.08-10.58-2.49-17.37,7.58-34.76,15.12-52,23-13.13,6-25.86,12.89-37.18,21.91A193.44,193.44,0,0,0,117.51,231a22.17,22.17,0,0,0-5.91,13.31c-.86,7.83,2,12.59,9.68,14.45C125.84,259.85,130.62,260,134.92,260.56Z"/>
        <path class="cls-2" d="M85.09,252.81c6.71,22.6,23.66,31.69,44.83,36.52a30,30,0,0,1-3.08,3.83c-13.73,11.77-22.35,27-29.15,43.39a161.47,161.47,0,0,0-6,16.1c-1.54,5.25-4.8,7.55-10,8.77a254.45,254.45,0,0,0-25.6,7.35C43.37,373.28,32,380.38,21.22,388.6c-3,2.28-6,4.55-9.16,6.54-1.49.93-3.41,1.18-5.7,1.92,1.85-5.68,35.53-46.57,46.85-57.44a35.92,35.92,0,0,0,5.77-.05c7.06-1.12,10.58-9.48,6.37-15A9.12,9.12,0,0,0,56,320.69a9,9,0,0,0-7.11,7.8c-.23,2.85.48,5.77.82,9.1-6.32,9-45.22,52.66-49.35,55.1-1.14-3,.62-5.34,1.72-7.72,3.72-8.08,7.9-16,11.17-24.21,5.76-14.59,8.41-30,10.93-45.42,2.38-14.52-.44-11.08,12.18-18.82,15.24-9.34,29.54-19.81,41-33.73C79.86,259.77,82.17,256.59,85.09,252.81Z"/>
        <path class="cls-3" d="M443.71,159.64l1.11-5,1.18.46c-.81,1.45-1.63,2.89-2.42,4.36Z"/>
      </g>
    </g>
  </g>
</svg>
