<svg xmlns="http://www.w3.org/2000/svg" xmlns:xlink="http://www.w3.org/1999/xlink" viewBox="0 0 998 353.15">
  <defs>
    <style>
      .cls-1 {
        fill: url(#linear-gradient);
      }

      .cls-2 {
        fill: url(#linear-gradient-2);
      }

      .cls-3 {
        fill: url(#linear-gradient-3);
      }

      .cls-4 {
        fill: url(#linear-gradient-4);
      }

      .cls-5 {
        fill: url(#linear-gradient-5);
      }
    </style>
    <linearGradient id="linear-gradient" x1="18.35" y1="264" x2="643.79" y2="96.42" gradientUnits="userSpaceOnUse">
      <stop offset="0" stop-color="#cb6e40"/>
      <stop offset="1" stop-color="#693419"/>
    </linearGradient>
    <linearGradient id="linear-gradient-2" x1="624.46" y1="290.59" x2="1001.87" y2="189.47" xlink:href="#linear-gradient"/>
    <linearGradient id="linear-gradient-3" x1="-10.92" y1="284.6" x2="98.05" y2="255.4" xlink:href="#linear-gradient"/>
    <linearGradient id="linear-gradient-4" x1="853.17" y1="187.28" x2="873.04" y2="181.96" xlink:href="#linear-gradient"/>
    <linearGradient id="linear-gradient-5" x1="236.67" y1="86.3" x2="256.58" y2="80.97" xlink:href="#linear-gradient"/>
  </defs>
  <g id="Layer_2" data-name="Layer 2">
    <g id="Layer_1-2" data-name="Layer 1">
      <g>
        <path class="cls-1" d="M433.67,147.71c-2.25,2.94-4.29,6.07-6.79,8.77a118.06,118.06,0,0,1-11.09,10.83c-3.79,3.16-8.47,3.86-13.28,2.63-7.93-2-11.39-8.68-10-18.48,1.14-7.82,4.08-15,7.41-22.05,2.08-4.41,3.88-9,5.77-13.45a5.51,5.51,0,0,0,.3-3.38,17.19,17.19,0,0,0-2,1.38c-13.76,12.58-24,27.72-32.08,44.41-1.63,3.36-3.08,6.81-4.72,10.17-1.52,3.14-4.19,4.19-7.49,3.11-6.95-2.28-8.81-5.38-7.42-12.73a73.14,73.14,0,0,0,1.58-8.46c-1,1-1.89,2.15-2.92,3.13-4.81,4.55-9.3,9.53-14.55,13.48a23,23,0,0,1-20.15,3.77,17.67,17.67,0,0,1-13.67-15.25c-.11-.79-.22-1.57-.47-3.27-1.41,2-2.37,3.43-3.35,4.81-5.15,7.23-10.64,14.14-18.54,18.6-8.07,4.55-16.38,2.54-20.85-5.54a34,34,0,0,1-3.47-11.46c-.58-4.06-.13-8.26-.13-13.4-1.2,1.44-1.84,2.24-2.52,3-5.27,6.12-10.48,12.3-15.88,18.31a15.77,15.77,0,0,1-4.86,3.3c-8.74,4.24-17.36-.59-18.45-10.28A56.64,56.64,0,0,1,216.7,136c.78-2.47,1.66-4.9,2.76-8.15l-29.21,10.55a5.84,5.84,0,0,0,.61,1.31c10,12.48,9.21,33.26-.1,47.5-11.58,17.69-28,29.28-47.2,37.21-16.54,6.83-33.73,10.37-51.72,8.07-8.44-1.07-16.14-4-21.86-10.72-7-8.24-7.13-21.1-.57-31.08C75.12,182,82.75,175.41,91.47,170c20.36-12.71,42.15-22.34,64.81-30.08,3.13-1.07,6.36-1.84,10.28-3a44.76,44.76,0,0,0-5.26-3.73c-11.48-5.81-23.1-11.35-34.5-17.31-6.32-3.3-12.71-6.72-18.39-11-16.23-12.15-15.83-29.79-7.35-44.1C107.94,49.16,117.51,40,128,31.65A152.4,152.4,0,0,1,186.12,2.79C195,.55,204-.86,213.23.59c16.6,2.61,24,15.25,21,31.14-2.2,11.4-9.26,20-17.43,27.78a118.25,118.25,0,0,1-10.07,8.32,15.8,15.8,0,0,1-11.4,3.31c-3.22-.33-5.75-1.76-7.1-4.83s-.34-5.41,2.58-7A80,80,0,0,0,219.92,32.8c1.89-2.84,2.86-6.42,3.74-9.79.73-2.82-.62-5.5-3.51-6.07a36.74,36.74,0,0,0-11.61-.82c-17.31,2.21-32.79,9.58-47.71,18.14a147.23,147.23,0,0,0-39.36,32.19,49,49,0,0,0-7.2,11.89c-2.37,5.36-1.06,10.54,3.36,14.43a49.43,49.43,0,0,0,9.64,6.75c11,5.72,22.22,10.84,33.06,16.75,7.17,3.91,13.87,8.68,20.65,13.27,1.81,1.23,3.28,1.73,5.4,1,11.5-3.9,23.08-7.58,34.54-11.6,1.69-.59,3.17-2.42,4.25-4,1.44-2.12,2.25-4.67,3.61-6.87,2.35-3.8,6-5.09,9.56-3.66a8,8,0,0,1,4.68,9.49c-1.08,4.2-2.76,8.25-4.15,12.38-3.19,9.54-6.44,19.06-9.46,28.66-.5,1.59.08,3.52.16,5.3,1.7-.77,3.92-1.1,5-2.39,6.43-7.59,12.55-15.46,18.89-23.13,4.79-5.79,6.6-12.84,8.52-19.8,6.56-23.67,16.72-45.78,28.6-67.18,6.64-12,14.29-23.15,24.52-32.38,3.48-3.13,7.07-6.17,12-6.84,6.27-.86,10.77,2.05,12.48,8.13,2,7,.15,13.65-2,20.15C333,50.74,325.37,63.14,317.27,75.23A369.92,369.92,0,0,1,281,120.33a11.6,11.6,0,0,0-2.53,4.48c-3.22,11-6,22-6.64,33.52a24.11,24.11,0,0,0,.36,5.88c.63,3.1,2.75,4.2,5.22,2.23a97.75,97.75,0,0,0,12.3-11.32c7.51-8.45,12.14-18.74,17.63-28.52s11.55-19.57,22.15-25.08c4.66-2.42,9.5-3.68,14.72-2.38,5.94,1.48,9.17,5.74,8.85,11.87-.5,9.3-5.72,16-12.38,21.86a48.37,48.37,0,0,1-17.3,9.63c-2.31.73-3.59,2.08-3.85,4.3-.33,2.87-.83,5.82-.47,8.64.64,5.22,4.32,7.37,9.23,5.47a29.93,29.93,0,0,0,8.39-4.61c14.07-11.75,25.28-25.71,32.17-42.88,1.12-2.79,2.33-5.55,3.72-8.22,1.94-3.71,5.72-5.16,9.81-4,3.63,1,5.88,3.89,4.92,8.18-1.18,5.31-3.41,10.39-5.21,15.57a9.59,9.59,0,0,1-1.57,3c5.66-6.14,11.12-12.49,17.06-18.34a32.34,32.34,0,0,1,9.75-6.49c8.66-3.73,16.82,2.07,15.65,11.45-.73,5.87-2.94,11.62-5,17.23-2.37,6.42-5.38,12.6-8,18.94a42.42,42.42,0,0,0-2.05,6.84c-.18.77.1,2.17.62,2.46a3.42,3.42,0,0,0,2.85-.05,16.94,16.94,0,0,0,3.89-3.07,192.18,192.18,0,0,0,25.59-33.26c2.5-4.1,3.56-9.06,5.4-13.57,4.2-10.27,8.48-20.52,12.72-30.78.19-.46.32-1,.63-1.9-4.67.8-9,1.6-13.34,2.26s-8.84,1.2-13.26,1.76a7.82,7.82,0,0,1-1.87,0c-3.82-.43-6.21-2.1-6.2-4.51,0-3.49,2.84-4.1,5.35-4.61,10.37-2.1,20.75-4.15,31.18-6,2.94-.51,4.8-1.62,6.14-4.35,4.47-9.14,8.92-18.3,13.89-27.16a47.11,47.11,0,0,1,9-11.28c1.66-1.55,5-2,7.51-1.77,5.19.49,7,4.59,4.66,9.28-4.42,8.68-8.88,17.35-13.26,26.06-.78,1.54-1.25,3.23-2.05,5.32,5.41-.52,10.31-1.11,15.22-1.45,17.06-1.17,34.06-1.15,50.72,3.39,5.34,1.46,10.43,3.58,14.56,7.46a16.33,16.33,0,0,1,5.22,12.22c.13,7.73-3,14.58-5.48,21.6-13.3,38-26.34,76.12-37.29,114.9-1.91,6.77-3.73,13.57-5.05,20.64,1.69-2.73,3.39-5.45,5.06-8.2,18.27-30.08,37.16-59.77,58.14-88,10.75-14.48,22.23-28.42,33.62-42.41,2.86-3.49,6.55-6.35,10.06-9.25,3.27-2.69,7.64-2,11.58,1.46s4.81,7.36,2.9,11.26c-5,10.25-10,20.51-14.71,30.91-8.53,18.92-16.88,37.92-25.21,56.93-7.85,17.94-12.86,36.82-17.84,55.68-3.81,14.4-6,29.1-5.07,44.07a78,78,0,0,0,2.06,13.5,22.38,22.38,0,0,0,9.38,13.51c.88.61,2,2.11,1.79,2.78-.37,1.07-1.72,2.46-2.74,2.52-2.72.19-5.72.36-8.2-.56-11.62-4.31-17.81-13.4-19.8-25.16-2.94-17.41-1.33-34.73,2.15-52,7-34.86,20.54-67.42,35.18-99.58a92.83,92.83,0,0,0,4.83-11.46c-1.2,1.56-2.45,3.1-3.62,4.69-23.05,31.4-44,64.19-63.92,97.64l-25,42c-.06.08-.1.18-.17.26-1.92,2.46-3.16,5.94-7.26,5.35-5.39-.77-9.33-4.21-10.46-8.91-1.29-5.36.29-10.5,1.21-15.68,5.51-31.06,14.41-61.18,24.83-90.9,3.54-10.08,7-20.2,10.45-30.31.1-.26.06-.58-.36-1.1q-4.29,7-8.57,13.91c-11.25,18.19-22.14,36.61-33.84,54.49-17.35,26.51-35.82,52.24-57.54,75.43-19.8,21.13-42.22,38.75-69.38,49.62-26.84,10.74-54.23,12.37-82.13,4.62-11.91-3.3-22.9-8.67-33.4-15.05-9.67-5.88-19.07-12.19-28.77-18-13.14-7.87-27.43-12.12-42.79-10.89a75.38,75.38,0,0,0-19.59,4.53c-9.27,3.4-18,8-25,15.36-.5.53-1,1-1.51,1.57a5.84,5.84,0,0,0-.57,1,23.35,23.35,0,0,1,5.67,18.38c-.64,6.3-3.11,11.59-8.44,15.3-4.59,3.2-10.37,3.58-14.65.73-4.71-3.13-6-7.69-5.06-13.08a32.82,32.82,0,0,1,7.35-15.92c1-1.27,2.08-2.56,3.39-4.16-4.22-2.92-8.87-3.4-13.45-3.73a72.08,72.08,0,0,0-31.14,5c-10,3.8-19.66,8.38-29.5,12.56-9.19,3.91-18.47,7.63-28.64,7.87a47.38,47.38,0,0,1-8.94-1c-.74-.13-1.31-1.3-2-2,.73-.47,1.43-1.27,2.2-1.36C22.45,333.9,35.64,328,49,322.56c11.14-4.53,22.21-9.39,33.69-12.87,11.64-3.53,23.91-4.2,35.63-.25,5,1.7,8.07.82,11.85-2.35,16.43-13.78,35.09-21.2,57-20.2,17.65.8,32.9,7.67,47.76,16.36,12,7,23.78,14.4,37,19.21,19.52,7.11,39.38,7.81,59.54,3.85s38-12.93,54.8-24.39c17.11-11.67,31.94-25.8,45.52-41.34C453.2,236,471.67,209.34,489.25,182c12.34-19.21,24.64-38.46,37.37-57.41,7.81-11.63,16.44-22.69,27.41-31.67,3.24-2.66,6.05-5.74,5.94-10.44a7.14,7.14,0,0,0-4.35-6.92c-7-3.31-14.45-4.5-22-5.12a193.86,193.86,0,0,0-49.93,2.46,5.23,5.23,0,0,0-3.43,2.46q-6.92,15.48-13.43,31.15c-9.82,23.63-18,47.83-22.84,73-1.76,9.21-2.21,18.74-2.44,28.14-.13,5.3,1,10.78,5.41,14.78a2.57,2.57,0,0,1,.41,1.81c-1.05.47-2.33,1.24-3.28,1a15.16,15.16,0,0,1-8.68-6.67,47.67,47.67,0,0,1-7.77-27.12A157.24,157.24,0,0,1,434,149a7.73,7.73,0,0,0,.15-1.09ZM92.12,217.87c29.38-2.33,53.83-12.47,73.76-32.63a48.1,48.1,0,0,0,12.27-19.6c2-6.56,1.68-12.87-1.93-18.87-1.12-1.87-2.35-2.47-4.6-1.7a358.45,358.45,0,0,0-60.75,27c-10.78,6.09-21,13.12-28.4,23.35a32.15,32.15,0,0,0-4.6,10c-1.29,4.65.55,8.31,5,10.12C86.15,216.89,89.8,217.32,92.12,217.87ZM285,103.15l.87.6c.45-.64.88-1.29,1.34-1.91,8.16-11,16.74-21.69,24.36-33C320,56.3,327,43,330.85,28.22a7.87,7.87,0,0,0,.43-3,3.85,3.85,0,0,0-1.37-2.52c-.45-.28-1.81.31-2.38.89A49.8,49.8,0,0,0,322,29.81a268.18,268.18,0,0,0-26,47C292.18,85.55,288.65,94.37,285,103.15ZM129.39,330.94a58,58,0,0,0-2.13-6.37c-.68-1.53-2.05-2-3.42-.38-3.61,4.22-6.59,8.78-7.53,14.36-.4,2.34-.71,5.05,1.91,6.32s5.06.09,7-1.86C128.19,340.06,129.05,336.26,129.39,330.94ZM324.53,134.08c1.57-1,3.14-2,4.7-2.94,7.07-4.5,12.1-10.59,14.48-18.69a7.53,7.53,0,0,0-.07-2.31,11,11,0,0,0-2.25.32,6.07,6.07,0,0,0-1.81,1.18C332.6,117.73,328.23,125.64,324.53,134.08Z"/>
        <path class="cls-2" d="M711.16,210.37a37.36,37.36,0,0,0-3.87,3A125.73,125.73,0,0,0,688,240c-5.18,9.21-9.83,18.73-14.68,28.13-2.25,4.36-3.72,5.25-7.64,4.4-4.92-1.07-8.48-4.39-8.22-8.39s1.23-7.91,2-12.57c-1.56,1.7-2.81,3.09-4.08,4.47-4.93,5.36-9.82,10.73-16.52,14a23.48,23.48,0,0,1-15.15,2.05c-10.66-2.06-15.88-9.46-16.53-21.84-.52-9.76,3.73-18.42,8.08-26.82,3.49-6.75,7.79-13,13.84-17.83a28.85,28.85,0,0,1,13.37-6.31c9.33-1.56,16.4,5.24,15.15,14.59-1.53,11.44-8.93,18.65-18.09,24.37-3.59,2.24-7.67,3.69-11.38,5.74a5.71,5.71,0,0,0-2.76,3.21,35.31,35.31,0,0,0-.61,8.65c.23,4.42,2.89,6.52,7.32,6,5.67-.7,9.91-4.2,13.91-7.81a107.07,107.07,0,0,0,29.47-43.69,29.69,29.69,0,0,1,2.72-5.58c2.91-4.7,6.73-5.87,11.42-3.7,3.56,1.66,5,5.6,3.31,10.51-1.36,4-3.21,7.87-4.83,11.8a4.92,4.92,0,0,0-.4,3.12c2.31-3.36,4.65-6.69,6.93-10.07A57.69,57.69,0,0,1,711.38,200c3.79-2.45,7.68-3.26,11.67-.67,3.71,2.4,4.29,6.19,3.8,10.19s-1.22,7.74-1.94,12.18c.89-.94,1.43-1.59,2-2.16,3.4-3.18,6.53-6.76,10.32-9.36a19.47,19.47,0,0,1,9.27-3c6.61-.46,10.77,3.58,10.32,10.26a52.26,52.26,0,0,1-3.12,13.85c-2.73,7.61-6.14,15-9.07,22.51-1,2.51-1.82,5.23-.74,8.74a48.51,48.51,0,0,0,4.88-3.4c7.93-7.21,13.47-16.27,19.25-25.14,4.14-6.34,8-12.86,12.47-19,3.41-4.72,7.4-9,14.09-9,.72,0,1.63-1.14,2.15-1.94,3.62-5.54,8.63-8,15.18-6.73,6.22,1.21,9.49,5.45,11.08,11.33,1.65,6.11,1.05,12.12-.54,18.13-.38,1.46-.64,3-1.16,5.38,3.23-1.15,5.7-2,8.16-2.91,6.87-2.5,10.83-7.58,13-14.39a27,27,0,0,1,3.2-6.35,8.16,8.16,0,0,1,8.81-3.17,7,7,0,0,1,5.23,6.62,23.72,23.72,0,0,1-1.32,7.86c-3.86,11.39-8,22.7-11.87,34.08a20.72,20.72,0,0,0-.77,5.52c-.13,2.4,1,3.13,3,2a12.45,12.45,0,0,0,3.88-3q12.17-16,24.11-32.08a78.34,78.34,0,0,0,4.91-7.57,3,3,0,0,0,.08-2.66c-3.62-4.91-3.83-10.24-1.85-15.69,2.25-6.18,4.85-12.39,11.47-15.15a16.68,16.68,0,0,1,8.14-1c4.66.58,6.45,4.11,4.46,8.51-2.26,5-4.93,9.77-7.41,14.64-.6,1.18-1.17,2.37-2,4.1a36.31,36.31,0,0,1,3.69.24c3.65.63,7.43.93,10.9,2.13,4.47,1.55,6.8,5.28,5.55,9.87-1.66,6.14-4.36,12-6.62,18-2.56,6.78-5.25,13.53-7.61,20.38-.49,1.44.22,3.29.38,4.95,1.48-.62,3.37-.86,4.38-1.93,4.46-4.74,9.1-9.41,12.89-14.68,6.3-8.75,12.06-17.88,17.87-27,1.06-1.66,1.23-3.88,1.8-5.85,1.72-5.84,3.09-11.81,5.26-17.48,1.94-5.07,6-8.65,10.54-11.57,3.36-2.19,7.12-3,11-1.48,4.59,1.78,5.88,5.8,3,9.7a77.52,77.52,0,0,1-6.69,7.36,17,17,0,0,0-4.71,15.75c1.1,5.8,2.61,11.52,3.92,17.29.58,2.55,2,2.5,3.86,1.34q13.57-8.53,27.14-17.05a36.35,36.35,0,0,1,3.37-2.23c.84-.39,2.42-.77,2.73-.39a3.79,3.79,0,0,1,.71,3.06,9,9,0,0,1-2.34,3.57c-7.92,7.61-17.13,13.39-26.76,18.56a11.68,11.68,0,0,1-1.15.49c-3.14,1.29-4.24,3.16-3.67,6.91,1.4,9.16.95,18.32-4,26.55-7,11.56-19,18.11-32.5,12.59-7.23-2.94-10.18-9.19-8-16.67a27,27,0,0,1,9.73-13.77c4.4-3.46,9-6.68,13.61-9.83,1.63-1.11,2.2-2.1,1.6-4.09-1.48-4.83-2.72-9.74-4.3-15.54-1.11,1.65-1.74,2.59-2.38,3.52-8.46,12.3-16.73,24.73-25.48,36.81-3.27,4.51-8,7.7-14,7.58-9-.17-14.86-6.64-14.87-16.15,0-8.39,2.52-16.14,6.16-23.58,2-4.1,4.09-8.15,6.11-12.25,1.09-2.22.14-4.08-3-5.69-1.9-1-3.52-.73-4.79,1.25-6.81,10.55-13.43,21.23-20.6,31.52a120.75,120.75,0,0,1-12.57,14.57,14.74,14.74,0,0,1-11.54,4.62c-6.45-.33-11.09-4.58-12.41-11.16-1.53-7.59.2-14.85,2.42-22,.35-1.14.63-2.3,1.17-4.28l-3.45,1.3c-2,.76-4,2.07-6.12,2.17-5,.24-6.9,3.2-8.71,7.29-3.66,8.29-8.18,16.18-15.11,22.24-11.51,10-28.78,4.36-32.33-10.53-.52-2.2-.89-4.43-1.33-6.64L766,250.13a9.1,9.1,0,0,1-1,2.57c-3.84,4.75-7.64,9.54-11.71,14.09a16.8,16.8,0,0,1-13.27,5.82c-7.37-.13-12.91-5-12.94-12.36A41.65,41.65,0,0,1,729.54,246c3.1-8.46,7.07-16.59,10.68-24.87.39-.9.77-1.82,1.16-2.73l-.82-.67c-4,4-8.34,7.87-12.07,12.18A99.72,99.72,0,0,0,711.36,259c-1,2.63-1.72,5.46-5.44,5.41a9.56,9.56,0,0,1-8.67-6,17.06,17.06,0,0,1,.65-11.9c3.86-10,7.9-19.85,11.86-29.78.75-1.87,1.48-3.76,2.21-5.64ZM794.85,222c-1.49,3-2.61,5.06-3.6,7.2-3.92,8.45-6.91,17.18-6.32,26.66.13,2.17,1.14,5.64,2.5,6.06,1.83.56,4.75-.79,6.57-2.16,6.63-5,9.56-12.63,13.23-19.69a2.15,2.15,0,0,0-.56-2C800.65,234.65,796.86,229.57,794.85,222Zm17.35,8.76c2.49-7.64,4.21-15,1.67-22.65-.36-1.09-1.58-2.54-2.51-2.62s-2.49,1-3.09,2a20,20,0,0,0-2.52,16.06C806.61,226.7,808.25,229.4,812.2,230.73Zm134.35,28.78a36.36,36.36,0,0,0-17,14.92c-1,1.67-2,3.82-.1,5,1.35.87,3.61.71,5.38.43,1.21-.19,2.35-1.27,3.38-2.13C943.77,273,945.09,266.29,946.55,259.51Zm-318-23.66c9.54-6,17.76-13.09,21.43-24.34-3-1.28-4.82.46-6.36,1.94C637,219.8,632.46,227.64,628.53,235.85Z"/>
        <path class="cls-3" d="M0,325.37a48.34,48.34,0,0,1,1.86-5.6,137.42,137.42,0,0,0,11.06-34c1.43-7.95,2-16.07,2.77-24.12a8,8,0,0,1,3.53-6.21q9.33-6.75,18.51-13.72A72.24,72.24,0,0,0,56.63,220c.54-.94,1.24-1.79,2-2.89.54.61.91.86,1,1.2C64.6,231.11,74.88,237,87.41,240c1.72.4,3.47.66,5.19,1.06,2.14.5,2.7,1.78,1,3.25C78.75,257.23,72.78,274.94,67.47,293c-.87,3-2.27,4.51-5.24,5.25-19,4.74-35.88,13.49-49.93,27.35a13,13,0,0,1-3.82,2.63c-.89.39-2.1.06-3.16.05a9.24,9.24,0,0,1,.87-2.78Q14.86,313.65,23.68,302c4.08-5.38,8.39-10.59,12.47-16a5.51,5.51,0,0,1,5.11-2.59c4.44.14,7.59-3.68,7.35-8.24a6.75,6.75,0,0,0-7.12-6.68c-4.7.23-7.91,5.45-6.17,10.82a5,5,0,0,1-1,5.29C24.83,296.85,15.44,309.15,6,321.38a62.27,62.27,0,0,1-4.55,4.79Z"/>
        <path class="cls-4" d="M872.84,182.81c0,5.78-4.43,11.39-9.88,12.35a7.44,7.44,0,0,1-7.75-2.85c-3.11-4.28-1.81-8.71.36-12.9a10.24,10.24,0,0,1,10.14-5.28C870.31,174.83,872.82,177.89,872.84,182.81Z"/>
        <path class="cls-5" d="M236.89,85.76c0-6.78,5.34-12.82,11.4-12.85,4.76,0,8.18,3.79,8.13,9-.07,6.48-5.44,12.39-11.22,12.33C240.25,94.24,236.9,90.8,236.89,85.76Z"/>
      </g>
    </g>
  </g>
</svg>
